<svg width="512" height="512" viewBox="0 0 512 512" fill="none" xmlns="http://www.w3.org/2000/svg">
  <rect width="512" height="512" rx="128" fill="#667eea"/>
  <rect x="96" y="96" width="320" height="320" rx="64" fill="white"/>
  
  <!-- Calendar grid -->
  <rect x="128" y="128" width="64" height="64" rx="8" fill="#667eea" opacity="0.8"/>
  <rect x="208" y="128" width="64" height="64" rx="8" fill="#667eea" opacity="0.6"/>
  <rect x="288" y="128" width="64" height="64" rx="8" fill="#667eea" opacity="0.4"/>
  <rect x="368" y="128" width="64" height="64" rx="8" fill="#667eea" opacity="0.2"/>
  
  <rect x="128" y="208" width="64" height="64" rx="8" fill="#667eea" opacity="0.9"/>
  <rect x="208" y="208" width="64" height="64" rx="8" fill="#667eea" opacity="0.7"/>
  <rect x="288" y="208" width="64" height="64" rx="8" fill="#667eea" opacity="0.5"/>
  <rect x="368" y="208" width="64" height="64" rx="8" fill="#667eea" opacity="0.3"/>
  
  <rect x="128" y="288" width="64" height="64" rx="8" fill="#667eea" opacity="1"/>
  <rect x="208" y="288" width="64" height="64" rx="8" fill="#667eea" opacity="0.8"/>
  <rect x="288" y="288" width="64" height="64" rx="8" fill="#667eea" opacity="0.6"/>
  <rect x="368" y="288" width="64" height="64" rx="8" fill="#667eea" opacity="0.4"/>
  
  <rect x="128" y="368" width="64" height="64" rx="8" fill="#667eea" opacity="0.9"/>
  <rect x="208" y="368" width="64" height="64" rx="8" fill="#667eea" opacity="0.7"/>
  <rect x="288" y="368" width="64" height="64" rx="8" fill="#667eea" opacity="0.5"/>
  <rect x="368" y="368" width="64" height="64" rx="8" fill="#667eea" opacity="0.3"/>
  
  <!-- Checkmark on first cell -->
  <path d="M144 176L176 208L208 144" stroke="white" stroke-width="8" stroke-linecap="round" stroke-linejoin="round"/>
</svg> 